<?xml version="1.0" encoding="utf-8"?>
<!-- Generator: Adobe Illustrator 17.0.0, SVG Export Plug-In . SVG Version: 6.00 Build 0)  -->
<!DOCTYPE svg PUBLIC "-//W3C//DTD SVG 1.1//EN" "http://www.w3.org/Graphics/SVG/1.1/DTD/svg11.dtd">
<svg version="1.1" id="Слой_1" xmlns="http://www.w3.org/2000/svg" xmlns:xlink="http://www.w3.org/1999/xlink" x="0px" y="0px"
	 width="1440px" height="639.41px" viewBox="0 0 1440 639.41" enable-background="new 0 0 1440 639.41" xml:space="preserve">
<polygon fill-rule="evenodd" clip-rule="evenodd" fill="none" stroke="#FFFFFF" stroke-miterlimit="10" points="1150.747,240.89 
	1127.495,346.895 910.633,258.514 "/>
<polygon fill-rule="evenodd" clip-rule="evenodd" fill="none" stroke="#FFFFFF" stroke-miterlimit="10" points="1236.168,205.132 
	1219.146,415.416 1148.121,242.209 "/>
<polygon fill-rule="evenodd" clip-rule="evenodd" fill="none" stroke="#FFFFFF" stroke-miterlimit="10" points="1236.168,205.132 
	1304.801,302.27 1148.121,242.209 "/>
<polygon fill-rule="evenodd" clip-rule="evenodd" fill="none" stroke="#FFFFFF" stroke-miterlimit="10" points="1414.091,196.282 
	1304.801,302.27 1428.091,310.403 "/>
<polygon fill-rule="evenodd" clip-rule="evenodd" fill="none" stroke="#FFFFFF" stroke-miterlimit="10" points="1236.168,205.132 
	1288.948,526.304 1312.645,169.574 "/>
<polygon fill-rule="evenodd" clip-rule="evenodd" fill="none" stroke="#FFFFFF" stroke-miterlimit="10" points="1236.168,205.132 
	1411.574,205.132 1312.645,169.574 "/>
<polygon fill-rule="evenodd" clip-rule="evenodd" fill="none" stroke="#FFFFFF" stroke-miterlimit="10" points="1288.25,514.199 
	1359.497,514.537 1304.933,674.289 "/>
<polygon fill-rule="evenodd" clip-rule="evenodd" fill="none" stroke="#FFFFFF" stroke-miterlimit="10" points="1357.772,390.532 
	1428.079,488.466 1305.016,670.984 "/>
<polygon fill-rule="evenodd" clip-rule="evenodd" fill="none" stroke="#FFFFFF" stroke-miterlimit="10" points="1357.543,391.644 
	1430.097,493.713 1370.52,304.694 "/>
<polygon fill-rule="evenodd" clip-rule="evenodd" fill="none" stroke="#FFFFFF" stroke-miterlimit="10" points="1289.301,515.841 
	1217.13,411.19 1307.245,673.21 "/>
<polygon fill-rule="evenodd" clip-rule="evenodd" fill="none" stroke="#FFFFFF" stroke-miterlimit="10" points="1092.062,454.521 
	1217.13,411.19 1288.566,515.064 "/>
<polygon fill-rule="evenodd" clip-rule="evenodd" fill="none" stroke="#FFFFFF" stroke-miterlimit="10" points="1125.083,345.597 
	1185.428,328.634 1219.47,412.287 "/>
<polygon fill-rule="evenodd" clip-rule="evenodd" fill="none" stroke="#FFFFFF" stroke-miterlimit="10" points="1235.285,208.263 
	1252.429,109.352 1311.479,171.835 "/>
<polygon fill-rule="evenodd" clip-rule="evenodd" fill="none" stroke="#FFFFFF" stroke-miterlimit="10" points="1432.078,74.4 
	1251.917,110.633 1310.388,172.414 "/>
<polygon fill-rule="evenodd" clip-rule="evenodd" fill="none" stroke="#FFFFFF" stroke-miterlimit="10" points="1235.285,208.263 
	1148.625,243.847 1125.819,115.332 "/>
<polygon fill-rule="evenodd" clip-rule="evenodd" fill="none" stroke="#FFFFFF" stroke-miterlimit="10" points="578.946,237.941 
	670.098,176.068 668.463,345.13 "/>
<polygon fill-rule="evenodd" clip-rule="evenodd" fill="none" stroke="#FFFFFF" stroke-miterlimit="10" points="761.571,22.286 
	668.463,176.517 666.299,345.832 "/>
<polygon fill-rule="evenodd" clip-rule="evenodd" fill="none" stroke="#FFFFFF" stroke-miterlimit="10" points="590.396,94.232 
	669.379,178.665 524.445,187.855 "/>
<polygon fill-rule="evenodd" clip-rule="evenodd" fill="none" stroke="#FFFFFF" stroke-miterlimit="10" points="592.334,94.664 
	391.598,193.983 525.489,189.528 "/>
<polygon fill-rule="evenodd" clip-rule="evenodd" fill="none" stroke="#FFFFFF" stroke-miterlimit="10" points="390.195,113.828 
	391.146,195.672 499.226,57.731 "/>
<polygon fill-rule="evenodd" clip-rule="evenodd" fill="none" stroke="#FFFFFF" stroke-miterlimit="10" points="320.389,112.177 
	392.662,193.916 298.834,244.459 "/>
<polygon fill-rule="evenodd" clip-rule="evenodd" fill="none" stroke="#FFFFFF" stroke-miterlimit="10" points="321.88,112.804 
	189.031,59.932 298.834,244.459 "/>
<polygon fill-rule="evenodd" clip-rule="evenodd" fill="none" stroke="#FFFFFF" stroke-miterlimit="10" points="212.968,205.671 
	144.322,301.205 298.834,244.459 "/>
<polygon fill-rule="evenodd" clip-rule="evenodd" fill="none" stroke="#FFFFFF" stroke-miterlimit="10" points="353.192,460.491 
	145.837,298.619 88.344,392.011 "/>
<polygon fill-rule="evenodd" clip-rule="evenodd" fill="none" stroke="#FFFFFF" stroke-miterlimit="10" points="23.5,308.811 
	145.837,298.619 89.718,393.224 "/>
<polygon fill-rule="evenodd" clip-rule="evenodd" fill="none" stroke="#FFFFFF" stroke-miterlimit="10" points="20.459,311.485 
	147.306,299.999 32.228,120.342 "/>
<polygon fill-rule="evenodd" clip-rule="evenodd" fill="none" stroke="#FFFFFF" stroke-miterlimit="10" points="33.672,526.304 
	160.837,511.102 88.344,392.011 "/>
<polygon fill-rule="evenodd" clip-rule="evenodd" fill="none" stroke="#FFFFFF" stroke-miterlimit="10" points="233.151,412.509 
	350.331,458.387 160.532,511.505 "/>
<polygon fill-rule="evenodd" clip-rule="evenodd" fill="none" stroke="#FFFFFF" stroke-miterlimit="10" points="35.551,574.402 
	35.551,399.027 141.912,668.369 "/>
<polygon fill-rule="evenodd" clip-rule="evenodd" fill="none" stroke="#FFFFFF" stroke-miterlimit="10" points="30.586,801.77 
	33.377,665.633 141.812,665.633 "/>
<polygon fill-rule="evenodd" clip-rule="evenodd" fill="none" stroke="#FFFFFF" stroke-miterlimit="10" points="137.659,168.363 
	145.521,301.583 214.171,206.303 "/>
<polygon fill-rule="evenodd" clip-rule="evenodd" fill="none" stroke="#FFFFFF" stroke-miterlimit="10" points="138.108,171.08 
	180.751,1.461 213.094,208.316 "/>
<polygon fill-rule="evenodd" clip-rule="evenodd" fill="none" stroke="#FFFFFF" stroke-miterlimit="10" points="44.319,252.663 
	22.73,28.023 138.755,169.697 "/>
<polygon fill-rule="evenodd" clip-rule="evenodd" fill="none" stroke="#FFFFFF" stroke-miterlimit="10" points="91.716,-12.763 
	70.662,90.016 138.436,172.002 "/>
<polygon fill-rule="evenodd" clip-rule="evenodd" fill="none" stroke="#FFFFFF" stroke-miterlimit="10" points="466.952,286.012 
	323.345,350.146 298.834,244.459 "/>
<polygon fill-rule="evenodd" clip-rule="evenodd" fill="none" stroke="#FFFFFF" stroke-miterlimit="10" points="504.254,220.481 
	668.184,345.171 461.612,286.608 "/>
<polygon fill-rule="evenodd" clip-rule="evenodd" fill="none" stroke="#FFFFFF" stroke-miterlimit="10" points="527.478,187.621 
	390.98,192.427 463.732,286.096 "/>
<polygon fill-rule="evenodd" clip-rule="evenodd" fill="none" stroke="#FFFFFF" stroke-miterlimit="10" points="778.966,177.344 
	929.193,191.03 777.66,337.434 "/>
<polygon fill-rule="evenodd" clip-rule="evenodd" fill="none" stroke="#FFFFFF" stroke-miterlimit="10" points="778.873,178.776 
	931.41,191.433 847.278,83.752 "/>
<polygon fill-rule="evenodd" clip-rule="evenodd" fill="none" stroke="#FFFFFF" stroke-miterlimit="10" points="778.873,178.776 
	931.41,191.433 1027.099,79.618 "/>
<polygon fill-rule="evenodd" clip-rule="evenodd" fill="none" stroke="#FFFFFF" stroke-miterlimit="10" points="1058.054,195.627 
	927.786,191.045 1025.016,79.768 "/>
<polygon fill-rule="evenodd" clip-rule="evenodd" fill="none" stroke="#FFFFFF" stroke-miterlimit="10" points="1056.472,194.39 
	1126.971,116.168 1066.839,248.696 "/>
<ellipse fill-rule="evenodd" clip-rule="evenodd" fill="#FFFFFF" cx="984.771" cy="291.03" rx="10.356" ry="10.829"/>
<ellipse fill-rule="evenodd" clip-rule="evenodd" fill="#FFFFFF" cx="914.637" cy="257.068" rx="12.709" ry="13.29"/>
<ellipse fill-rule="evenodd" clip-rule="evenodd" fill="#FFFFFF" cx="1124.568" cy="345.665" rx="9.885" ry="10.336"/>
<ellipse fill-rule="evenodd" clip-rule="evenodd" fill="#FFFFFF" cx="1217.296" cy="410.144" rx="7.531" ry="7.875"/>
<ellipse fill-rule="evenodd" clip-rule="evenodd" fill="#FFFFFF" cx="1094.915" cy="453.458" rx="9.414" ry="9.844"/>
<ellipse fill-rule="evenodd" clip-rule="evenodd" fill="#FFFFFF" cx="1288.371" cy="513.999" rx="8.002" ry="8.367"/>
<ellipse fill-rule="evenodd" clip-rule="evenodd" fill="#FFFFFF" cx="1306.257" cy="669.536" rx="8.002" ry="8.367"/>
<ellipse fill-rule="evenodd" clip-rule="evenodd" fill="#FFFFFF" cx="1358.034" cy="391.932" rx="6.119" ry="6.399"/>
<ellipse fill-rule="evenodd" clip-rule="evenodd" fill="#FFFFFF" cx="1302.962" cy="300.874" rx="4.707" ry="4.922"/>
<ellipse fill-rule="evenodd" clip-rule="evenodd" fill="#FFFFFF" cx="1371.214" cy="307.273" rx="4.236" ry="4.43"/>
<ellipse fill-rule="evenodd" clip-rule="evenodd" fill="#FFFFFF" cx="1254.01" cy="111.867" rx="4.707" ry="4.922"/>
<ellipse fill-rule="evenodd" clip-rule="evenodd" fill="#FFFFFF" cx="1150.927" cy="242.302" rx="9.885" ry="10.336"/>
<ellipse fill-rule="evenodd" clip-rule="evenodd" fill="#FFFFFF" cx="1127.393" cy="119.25" rx="7.06" ry="7.383"/>
<ellipse fill-rule="evenodd" clip-rule="evenodd" fill="#9C9B9B" cx="1022.898" cy="83.811" rx="5.178" ry="5.414"/>
<ellipse fill-rule="evenodd" clip-rule="evenodd" fill="#FFFFFF" cx="1236.124" cy="208.339" rx="6.59" ry="6.891"/>
<ellipse fill-rule="evenodd" clip-rule="evenodd" fill="#FFFFFF" cx="1311.435" cy="171.916" rx="4.707" ry="4.922"/>
<ellipse fill-rule="evenodd" clip-rule="evenodd" fill="#FFFFFF" cx="580.443" cy="236.395" rx="10.826" ry="11.321"/>
<ellipse fill-rule="evenodd" clip-rule="evenodd" fill="#FFFFFF" cx="589.857" cy="94.64" rx="5.178" ry="5.414"/>
<ellipse fill-rule="evenodd" clip-rule="evenodd" fill="#FFFFFF" cx="392.164" cy="194.065" rx="9.885" ry="10.336"/>
<ellipse fill-rule="evenodd" clip-rule="evenodd" fill="#FFFFFF" cx="190.706" cy="63.139" rx="5.178" ry="5.414"/>
<ellipse fill-rule="evenodd" clip-rule="evenodd" fill="#FFFFFF" cx="498.071" cy="57.725" rx="5.648" ry="5.906"/>
<ellipse fill-rule="evenodd" clip-rule="evenodd" fill="#FFFFFF" cx="298.966" cy="244.27" rx="8.002" ry="8.367"/>
<ellipse fill-rule="evenodd" clip-rule="evenodd" fill="#FFFFFF" cx="145.519" cy="301.366" rx="8.002" ry="8.367"/>
<ellipse fill-rule="evenodd" clip-rule="evenodd" fill="#FFFFFF" cx="232.598" cy="411.128" rx="10.355" ry="10.829"/>
<ellipse fill-rule="evenodd" clip-rule="evenodd" fill="#FFFFFF" cx="161.523" cy="510.061" rx="8.002" ry="8.367"/>
<ellipse fill-rule="evenodd" clip-rule="evenodd" fill="#FFFFFF" cx="346.036" cy="458.872" rx="8.002" ry="8.367"/>
<ellipse fill-rule="evenodd" clip-rule="evenodd" fill="#FFFFFF" cx="323.442" cy="348.618" rx="7.06" ry="7.383"/>
<ellipse fill-rule="evenodd" clip-rule="evenodd" fill="#FFFFFF" cx="461.827" cy="286.6" rx="10.826" ry="11.321"/>
<ellipse fill-rule="evenodd" clip-rule="evenodd" fill="#FFFFFF" cx="139.4" cy="666.09" rx="5.648" ry="5.906"/>
<ellipse fill-rule="evenodd" clip-rule="evenodd" fill="#9C9B9B" cx="89.506" cy="394.393" rx="5.648" ry="5.906"/>
<ellipse fill-rule="evenodd" clip-rule="evenodd" fill="#FFFFFF" cx="138.459" cy="169.947" rx="6.59" ry="6.891"/>
<ellipse fill-rule="evenodd" clip-rule="evenodd" fill="#FFFFFF" cx="214.241" cy="205.878" rx="5.178" ry="5.414"/>
<ellipse fill-rule="evenodd" clip-rule="evenodd" fill="#FFFFFF" cx="732.007" cy="123.188" rx="7.06" ry="7.383"/>
<ellipse fill-rule="evenodd" clip-rule="evenodd" fill="#FFFFFF" cx="781.43" cy="178.807" rx="8.473" ry="8.86"/>
<line fill="none" stroke="#FFFFFF" stroke-miterlimit="10" x1="913.696" y1="257.068" x2="773.428" y2="337.789"/>
</svg>
